Patient4_TMGait_0pt4_03_right_27_GRF.mot
version=1
nRows=32
nColumns=19
inDegrees=no
endheader
time	F1x	F1y	F1z	M1x	M1y	M1z	F2x	F2y	F2z	M2x	M2y	M2z	EC1x	EC1y	EC1z	EC2x	EC2y	EC2z
34.94	-13.0491	742.7281	63.6156	-227.4764	-69.5088	799.7605	14.1403	22.8055	-4.1041	6.1723	-1.6796	25.791	-0.0592	0.0182	-0.0073	-0.0462	0.0165	0.9585
34.953	-10.0311	736.8195	64.6981	-225.7906	-69.1729	790.0343	9.1844	16.2568	-2.9182	4.5188	-0.8765	18.4566	-0.0592	0.0182	-0.0073	-0.0462	0.0165	0.9585
34.966	-7.0762	731.0632	65.349	-224.1199	-68.3923	780.2762	4.942	10.8227	-1.8995	3.156	-0.16568	12.3724	-0.0592	0.0182	-0.0073	-0.0462	0.0165	0.9585
34.979	-4.2978	726.3886	65.5669	-222.7452	-67.2211	771.6069	1.651	6.8038	-1.1219	2.1642	0.42155	7.8822	-0.0592	0.0182	-0.0073	-0.0462	0.0165	0.9585
34.992	-1.7182	723.5956	65.4435	-221.9226	-65.7636	764.9271	-0.69753	4.1359	-0.58684	1.5239	0.87522	4.9216	-0.0592	0.0182	-0.0073	-0.0462	0.0165	0.9585
35.005	0.71248	723.2402	65.0792	-221.8411	-64.1088	760.8192	-2.1764	2.5455	-0.2628	1.154	1.1859	3.1726	-0.0592	0.0182	-0.0073	-0.0462	0.0165	0.9585
35.018	3.0612	725.5707	64.5775	-222.5925	-62.34	759.5086	-2.9043	1.6879	-0.09694	0.95114	1.3445	2.2274	-0.0592	0.0182	-0.0073	-0.0462	0.0165	0.9585
35.031	5.4166	730.5442	64.0232	-224.1723	-60.5204	760.9019	-3.08	1.2384	-0.038433	0.82348	1.3777	1.6987	-0.0592	0.0182	-0.0073	-0.0462	0.0165	0.9585
35.044	7.8487	737.8571	63.4964	-226.4882	-58.7103	764.6451	-2.9358	0.95591	-0.051256	0.70781	1.3456	1.3088	-0.0592	0.0182	-0.0073	-0.0462	0.0165	0.9585
35.057	10.4018	746.9875	63.061	-229.3734	-56.9608	770.184	-2.6834	0.65743	-0.11048	0.55421	1.3098	0.87583	-0.0592	0.0182	-0.0073	-0.0462	0.0165	0.9585
35.07	13.0651	757.234	62.7637	-232.5989	-55.322	776.8172	-2.4527	0.14773	-0.19084	0.30259	1.2974	0.19517	-0.0592	0.0182	-0.0073	-0.0462	0.0165	0.9585
35.083	15.8027	767.7592	62.6216	-235.8912	-53.8275	783.7203	-2.305	-0.71191	-0.2711	-0.098436	1.3079	-0.87355	-0.0592	0.0182	-0.0073	-0.0462	0.0165	0.9585
35.096	18.5579	777.669	62.6141	-238.9587	-52.481	790.0228	-2.2089	-2.0289	-0.33081	-0.69148	1.3079	-2.4538	-0.0592	0.0182	-0.0073	-0.0462	0.0165	0.9585
35.109	21.2909	786.0422	62.71	-241.4995	-51.2723	794.8344	-2.1009	-3.8532	-0.34733	-1.4942	1.2461	-4.5958	-0.0592	0.0182	-0.0073	-0.0462	0.0165	0.9585
35.122	23.9764	791.9261	62.8652	-243.2007	-50.1767	797.2347	-1.8328	-6.114	-0.29839	-2.4752	1.0412	-7.2177	-0.0592	0.0182	-0.0073	-0.0462	0.0165	0.9585
35.135	26.5845	794.3746	63.0569	-243.7496	-49.1916	796.3286	-1.2054	-8.557	-0.15895	-3.5257	0.58754	-10.0236	-0.0592	0.0182	-0.0073	-0.0462	0.0165	0.9585
35.148	29.0932	792.6043	63.263	-242.8896	-48.3118	791.4021	-0.0039247	-10.6719	0.097777	-4.4263	-0.23039	-12.4147	-0.0592	0.0182	-0.0073	-0.0462	0.0165	0.9585
35.161	31.4706	786.2012	63.4889	-240.4837	-47.5584	782.1092	2.0185	-11.5817	0.49829	-4.8047	-1.5358	-13.3796	-0.0592	0.0182	-0.0073	-0.0462	0.0165	0.9585
35.174	33.7068	775.219	63.7438	-236.5459	-46.9486	768.55	5.0632	-9.9583	1.0537	-4.1022	-3.4267	-11.3798	-0.0592	0.0182	-0.0073	-0.0462	0.0165	0.9585
35.187	35.7759	760.0785	64.0522	-231.2106	-46.5211	751.201	9.2306	-4.0424	1.7502	-1.5757	-5.9317	-4.3947	-0.0592	0.0182	-0.0073	-0.0462	0.0165	0.9585
35.2	37.6495	741.3501	64.3843	-224.6703	-46.2674	730.6828	14.389	8.3295	2.524	3.6838	-8.9186	10.0546	-0.0592	0.0182	-0.0073	-0.0462	0.0165	0.9585
35.213	39.2629	719.452	64.6507	-217.0841	-46.1255	707.4671	20.043	29.4729	3.2371	12.6494	-12.0095	34.6102	-0.0592	0.0182	-0.0073	-0.0462	0.0165	0.9585
35.226	40.4966	694.3653	64.6617	-208.4878	-45.9522	681.6067	25.1185	61.3716	3.6486	26.1547	-14.4716	71.5282	-0.0592	0.0182	-0.0073	-0.0462	0.0165	0.9585
35.239	41.1472	665.4759	64.1385	-198.7475	-45.5396	652.5694	27.8412	104.9623	3.3881	44.5848	-15.1425	121.8326	-0.0592	0.0182	-0.0073	-0.0462	0.0165	0.9585
35.252	40.9636	631.7801	62.7195	-187.6207	-44.6118	619.4212	26.1813	159.5022	1.8982	67.5962	-12.5539	184.6263	-0.0592	0.0182	-0.0073	-0.0462	0.0165	0.9585
35.265	39.7527	592.4164	60.0522	-174.9167	-42.8773	581.3022	19.3931	222.5902	-1.3838	94.103	-5.7641	257.1658	-0.0592	0.0182	-0.0073	-0.0462	0.0165	0.9585
35.278	37.4735	547.1829	55.9124	-160.6457	-40.1151	537.9176	8.9258	290.0418	-6.7503	122.2965	4.8819	334.5068	-0.0592	0.0182	-0.0073	-0.0462	0.0165	0.9585
35.291	34.2853	496.7203	50.3369	-145.0619	-36.2813	489.6846	-2.6003	357.6585	-14.0315	150.3891	18.0595	411.5246	-0.0592	0.0182	-0.0073	-0.0462	0.0165	0.9585
35.304	30.4588	442.2867	43.6257	-128.5794	-31.5395	437.5781	-13.3267	422.7772	-22.6099	177.2738	32.2609	484.9355	-0.0592	0.0182	-0.0073	-0.0462	0.0165	0.9585
35.317	26.2353	385.3711	36.2718	-111.6382	-26.244	382.8241	-22.2298	484.1517	-31.4992	202.4736	45.954	553.2605	-0.0592	0.0182	-0.0073	-0.0462	0.0165	0.9585
35.33	21.7369	327.4754	28.9213	-94.6304	-20.9419	326.7462	-28.9033	540.9701	-39.9774	225.7048	58.1509	615.647	-0.0592	0.0182	-0.0073	-0.0462	0.0165	0.9585
35.343	16.9914	270.2286	22.1338	-77.9608	-16.1417	270.9007	-33.3176	592.6986	-47.4284	246.7947	68.1691	671.5848	-0.0592	0.0182	-0.0073	-0.0462	0.0165	0.9585
